<svg version="1.1" xmlns="http://www.w3.org/2000/svg" xmlns:xlink="http://www.w3.org/1999/xlink" x="0px" y="0px"
	 width="16px" height="16px" viewBox="0 0 16 16" enable-background="new 0 0 16 16" xml:space="preserve">
	<path fill="#FFFFFF" d="M5.5,11C2.463,11,0,8.537,0,5.5C0,2.462,2.463,0,5.5,0S11,2.462,11,5.5c0,1.219-0.396,2.346-1.068,3.258
		l0.111,0.251L16,15l-1,1l-6-6L8.843,9.868C7.916,10.578,6.758,11,5.5,11z M5.5,10C7.985,10,10,7.985,10,5.5S7.985,1,5.5,1
		S1,3.015,1,5.5S3.015,10,5.5,10z"/>
</svg>
